<?xml version="1.0" encoding="utf-8"?>
<!-- Generator: Adobe Illustrator 27.5.0, SVG Export Plug-In . SVG Version: 6.00 Build 0)  -->
<!DOCTYPE svg PUBLIC "-//W3C//DTD SVG 1.1//EN" "http://www.w3.org/Graphics/SVG/1.1/DTD/svg11.dtd" [
	<!ENTITY ns_extend "http://ns.adobe.com/Extensibility/1.0/">
	<!ENTITY ns_ai "http://ns.adobe.com/AdobeIllustrator/10.0/">
	<!ENTITY ns_graphs "http://ns.adobe.com/Graphs/1.0/">
	<!ENTITY ns_vars "http://ns.adobe.com/Variables/1.0/">
	<!ENTITY ns_imrep "http://ns.adobe.com/ImageReplacement/1.0/">
	<!ENTITY ns_sfw "http://ns.adobe.com/SaveForWeb/1.0/">
	<!ENTITY ns_custom "http://ns.adobe.com/GenericCustomNamespace/1.0/">
	<!ENTITY ns_adobe_xpath "http://ns.adobe.com/XPath/1.0/">
]>
<svg version="1.1" id="artwork" xmlns:x="&ns_extend;" xmlns:i="&ns_ai;" xmlns:graph="&ns_graphs;"
	 xmlns="http://www.w3.org/2000/svg" xmlns:xlink="http://www.w3.org/1999/xlink" x="0px" y="0px"
	 viewBox="0 0 674.6456909 354.4639282" style="enable-background:new 0 0 674.6456909 354.4639282;" xml:space="preserve">
<style type="text/css">
	.st0{fill:#1554FF;}
</style>
<metadata>
	<sfw  xmlns="&ns_sfw;">
		<slices></slices>
		<sliceSourceBounds  bottomLeftOrigin="true" height="161.7064134" width="485.4614899" x="96.378" y="-258.0843661">
			</sliceSourceBounds>
	</sfw>
</metadata>
<g>
	<g>
		<path id="O_00000138540336265054664600000016930007562990287544_" d="M502.6722717,171.5470886
			c-14.6594543,0-26.5860901-9.8518372-26.5860901-21.9616547v-31.2458191
			c0-12.1098251,11.9266357-21.9616623,26.5860901-21.9616623h49.0093689c14.6594238,0,26.5860596,9.8518372,26.5860596,21.9616623
			v31.2458191c0,12.1098175-11.9266357,21.9616547-26.5860596,21.9616547H502.6722717z M498.1169128,114.4442825
			c-0.3027649,0-0.5492554,0.2461548-0.5492554,0.548584v37.893959c0,0.3027649,0.2464905,0.5489197,0.5492554,0.5489197h57.7825012
			c0.3027344,0,0.5492554-0.2461548,0.5492554-0.5489197v-37.893959c0-0.3024292-0.246521-0.548584-0.5492554-0.548584H498.1169128z
			"/>
		<path id="E_00000029765127085274980120000003927566906346276258_" d="M347.3227539,171.5474396h-61.0654297
			c-14.6601257,0-26.5864258-9.8518219-26.5864258-21.9616241v-31.2567139c0-12.1098022,11.9263-21.9616241,26.5864258-21.9494858
			h60.7623291l0.441864-0.0009155c0.9300537,0,1.6839905,0.7539673,1.6839905,1.6840363l0.0003052,0.065918v14.6356812h-0.0003052
			c0,0.9300613-0.7539368,1.6840286-1.6839905,1.6840286l-0.1410217-0.000885l-65.5314636,0.0010071
			c-0.3523254,0-0.6390076,0.2866821-0.6390076,0.6390152v37.709404c0,0.3523407,0.2866821,0.6390228,0.6390076,0.6390228
			l65.4728088,0.0008087l0.1996765,0.0004272c0.9300537,0,1.6839905,0.7539673,1.6839905,1.6840363l0.0006409,0.0312653
			l-0.0075378,14.6976624l0.0018616,0.0136719c0,0.930069-0.7489014,1.6840363-1.6789551,1.6840363L347.3227539,171.5474396z"/>
		<path id="E_00000006693064563156569160000005477375624969428886_" d="M456.6292114,171.5474396h-61.0654602
			c-14.6601257,0-26.5864258-9.8518219-26.5864258-21.9616241v-31.2567139c0-12.1098022,11.9263-21.9616241,26.5864258-21.9494858
			h60.7623291l0.441864-0.0009155c0.9300537,0,1.6839905,0.7539673,1.6839905,1.6840363l0.0003052,0.065918v14.6356812h-0.0003052
			c0,0.9300613-0.7539368,1.6840286-1.6839905,1.6840286l-0.1410217-0.000885l-65.5314636,0.0010071
			c-0.3523254,0-0.6390076,0.2866821-0.6390076,0.6390152v37.709404c0,0.3523407,0.2866821,0.6390228,0.6390076,0.6390228
			l65.4728088,0.0008087l0.1996765,0.0004272c0.9300537,0,1.6839905,0.7539673,1.6839905,1.6840363l0.0006409,0.0312653
			l-0.0075378,14.6976624l0.0018616,0.0136719c0,0.930069-0.7489014,1.6840363-1.6789551,1.6840363L456.6292114,171.5474396z"/>
		<path id="flashOFlight_00000023258013922986183210000011341313084246648469_" class="st0" d="M347.6381226,142.3729095
			h-54.6264648c-0.5456848,0-0.9921265-0.4464569-0.9921265-0.9921265v-14.6862946
			c0-0.5456696,0.4464417-0.9921265,0.9921265-0.9921265h54.6264648c0.5456543,0,0.9921265,0.4464569,0.9921265,0.9921265
			v14.6862946C348.630249,141.9264526,348.1837769,142.3729095,347.6381226,142.3729095z"/>
		<path id="V_00000163036926047058923260000017890258676905647525_" d="M190.4435272,174.3667755
			c-8.4178314,0-16.0724182-3.8282928-19.9767456-9.9908752l-0.226059-0.3781128l-38.0468903-65.3885345
			c-0.2528534-0.4511185-0.2478333-0.9745712,0.0077057-1.4106216c0.296051-0.5053711,0.8787842-0.8191757,1.5201416-0.8191757
			h20.075882c0.6547394,0,1.242157,0.3228531,1.5335236,0.8426208l34.3646088,58.8197021
			c0.0720062,0.0847321,0.2870178,0.2719421,0.7796631,0.2823334c0.562973-0.0040283,0.7207031-0.2625732,0.7967377-0.3868256
			l37.3030548-58.7721405c0.2927094-0.4805908,0.869751-0.7856903,1.4997101-0.7856903h20.389679
			c0.6537476,0,1.2415009,0.3228531,1.5335388,0.8426208c0.2525177,0.4491119,0.2424622,0.9812698-0.0271301,1.4236832
			l-41.3802032,65.470253c-3.8122101,6.2627258-11.4631195,10.1938324-19.9609985,10.2501068L190.4435272,174.3667755z"/>
		<path id="I_00000083050634839679583510000001810702503462520206_" d="M116.3610001,171.5464325H98.0619965
			c-0.9261932,0-1.6839981-0.7577972-1.6839981-1.6839905V98.0626984c0-0.9262009,0.7578049-1.6839981,1.6839981-1.6839981
			h18.2990036c0.9262009,0,1.6839981,0.7577972,1.6839981,1.6839981v71.7997437
			C118.0449982,170.7886353,117.2872009,171.5464325,116.3610001,171.5464325z"/>
	</g>
	<g>
		<path d="M402.4801025,258.0843811h-51.8349609c-0.6835938,0-1.2158203-0.4560547-1.2158203-1.2158203v-50.7705231
			c0-0.6845703,0.5322266-1.2167969,1.2158203-1.2167969h50.7705078c11.0966797,0,17.7089844,5.625,17.7089844,14.4414062
			c0,5.3955078-2.7353516,9.2724609-6.5361328,11.5527344v0.53125c4.7119141,2.4326172,7.6767578,6.4609375,7.6767578,12.2373047
			C420.2652588,253.6761627,412.6646729,258.0843811,402.4801025,258.0843811z M365.1617432,225.7064362h37.2421875
			c0.2285156,0,0.3798828-0.1513672,0.3798828-0.3798828v-8.2080078c0-0.2285156-0.1513672-0.3808594-0.3798828-0.3808594
			h-37.2421875c-0.2275391,0-0.4560547,0.1523438-0.4560547,0.3808594v8.2080078
			C364.7056885,225.555069,364.9342041,225.7064362,365.1617432,225.7064362z M365.1617432,246.3040924h37.2421875
			c0.2285156,0,0.3798828-0.1523438,0.3798828-0.3808594v-8.2080078c0-0.2275391-0.1513672-0.3798828-0.3798828-0.3798828
			h-37.2421875c-0.2275391,0-0.4560547,0.1523438-0.4560547,0.3798828v8.2080078
			C364.7056885,246.1517487,364.9342041,246.3040924,365.1617432,246.3040924z"/>
		<path d="M479.9986572,258.0843811h-25.1572266c-13.0732422,0-20.1416016-7.6006012-20.1416016-18.2412262v-33.7451172
			c0-0.6845703,0.5322266-1.2167969,1.2167969-1.2167969h12.9199219c0.6845703,0,1.2167969,0.5322266,1.2167969,1.2167969
			v38.7617188c0,0.2275391,0.1513672,0.3798828,0.3798828,0.3798828h33.9736328
			c0.2285156,0,0.4560547-0.1523438,0.4560547-0.3798828v-38.7617188c0-0.6845703,0.4560547-1.2167969,1.2158203-1.2167969
			h12.8447266c0.6845703,0,1.2158203,0.5322266,1.2158203,1.2167969v33.7451172
			C500.1392822,250.4837799,493.0709229,258.0843811,479.9986572,258.0843811z"/>
		<path d="M514.5758057,222.8949127v-3.4970703c0-9.3476562,7.3720703-14.5166016,17.7089844-14.5166016h44.7666016
			c0.7597656,0,1.2158203,0.5322266,1.2158203,1.2167969v10.4121094c0,0.6835938-0.4560547,1.2158203-1.2158203,1.2158203
			h-46.8193359c-0.2275391,0-0.3798828,0.1523438-0.3798828,0.3798828v7.0683594
			c0,0.2285156,0.1523438,0.3808594,0.3798828,0.3808594h33.8222656c10.3369141,0,17.7851562,5.1679688,17.7851562,14.5166016
			v3.5722656c0,9.2724609-7.4482422,14.4404449-17.7851562,14.4404449h-46.3623047
			c-0.7607422,0-1.2158203-0.5322266-1.2158203-1.2158203v-10.4131012c0-0.6835938,0.4550781-1.2158203,1.2158203-1.2158203
			h48.4140625c0.2285156,0,0.3798828-0.1523438,0.3798828-0.3798828v-7.0683594
			c0-0.2285156-0.1513672-0.3798828-0.3798828-0.3798828H532.28479
			C521.947876,237.4115143,514.5758057,232.242569,514.5758057,222.8949127z"/>
	</g>
</g>
<g id="IVECO">
</g>
</svg>
